<svg xmlns="http://www.w3.org/2000/svg" version="1.1" xmlns:xlink="http://www.w3.org/1999/xlink" xmlns:svgjs="http://svgjs.dev/svgjs" width="1500" height="1500" viewBox="0 0 1500 1500"><rect width="1500" height="1500" fill="#ffffff"></rect><g transform="matrix(0.6666666666666666,0,0,0.6666666666666666,249.39393939393938,438.5856950067477)"><svg viewBox="0 0 396 247" data-background-color="#e6e9e0" preserveAspectRatio="xMidYMid meet" height="935" width="1500" xmlns="http://www.w3.org/2000/svg" xmlns:xlink="http://www.w3.org/1999/xlink"><g id="tight-bounds" transform="matrix(1,0,0,1,0.2400000000000091,-0.09999999999999432)"><svg viewBox="0 0 395.52 247.2" height="247.2" width="395.52"><g><svg></svg></g><g><svg viewBox="0 0 395.52 247.2" height="247.2" width="395.52"><mask id="b12d6c82-50ca-458e-8b47-ed19fa2e49b9"><rect width="395.52" height="247.2" fill="white"></rect><g transform="matrix(1,0,0,1,2.842170943040401e-14,97.01586885245902)" id="clone"><svg viewBox="0 0 395.5199999999999 53.16826229508195" height="53.16826229508195" width="395.5199999999999"><g><svg viewBox="0 0 395.5199999999999 53.16826229508195" height="53.16826229508195" width="395.5199999999999"><g><svg viewBox="0 0 395.5199999999999 53.16826229508195" height="53.16826229508195" width="395.5199999999999"><g><svg viewBox="0 0 395.5199999999999 53.16826229508195" height="53.16826229508195" width="395.5199999999999"><g id="SvgjsG1794"><svg viewBox="0 0 395.5199999999999 53.16826229508195" height="53.16826229508195" width="395.5199999999999" id="SvgjsSvg1793"><g><svg viewBox="0 0 395.5199999999999 53.16826229508195" height="53.16826229508195" width="395.5199999999999"><g transform="matrix(1,0,0,1,0,0)"><svg width="395.5199999999999" viewBox="-0.9500000000000002 -38.5 305.96999999999997 42" height="53.16826229508195" data-palette-color="#776e9a"><path d="M2.05 0L2.05-35 17.05-35 17.05-30 7.55-30 7.55-20.75 15.1-20.75 15.1-15.75 7.55-15.75 7.55-5 17.05-5 17.05 0 2.05 0ZM20.2 0L20.2-35 28.05-35 31.55-9.95 31.65-9.95 35.15-35 43-35 43 0 37.8 0 37.8-26.5 37.7-26.5 33.7 0 29.1 0 25.1-26.5 25-26.5 25 0 20.2 0ZM47.09 0L47.09-35 54.95-35 58.45-9.95 58.55-9.95 62.05-35 69.9-35 69.9 0 64.7 0 64.7-26.5 64.59-26.5 60.59 0 56 0 52-26.5 51.9-26.5 51.9 0 47.09 0ZM72.54 0L78.24-35 85.69-35 91.39 0 85.89 0 84.89-6.95 84.89-6.85 78.64-6.85 77.64 0 72.54 0ZM79.29-11.6L84.24-11.6 81.79-28.9 81.69-28.9 79.29-11.6ZM94.04 0L94.04-35 100.94-35 106.29-14.05 106.39-14.05 106.39-35 111.29-35 111.29 0 105.64 0 99.04-25.55 98.94-25.55 98.94 0 94.04 0ZM123.39 0.5Q119.39 0.5 117.29-1.78 115.19-4.05 115.19-8.3L115.19-8.3 115.19-35 120.69-35 120.69-7.9Q120.69-6.1 121.41-5.3 122.14-4.5 123.49-4.5L123.49-4.5Q124.84-4.5 125.56-5.3 126.29-6.1 126.29-7.9L126.29-7.9 126.29-35 131.59-35 131.59-8.3Q131.59-4.05 129.49-1.78 127.39 0.5 123.39 0.5L123.39 0.5ZM135.49 0L135.49-35 150.49-35 150.49-30 140.99-30 140.99-20.75 148.53-20.75 148.53-15.75 140.99-15.75 140.99-5 150.49-5 150.49 0 135.49 0ZM153.63 0L153.63-35 159.13-35 159.13-5 168.18-5 168.18 0 153.63 0ZM178.83 0L178.83-35 186.68-35 190.18-9.95 190.28-9.95 193.78-35 201.63-35 201.63 0 196.43 0 196.43-26.5 196.33-26.5 192.33 0 187.73 0 183.73-26.5 183.63-26.5 183.63 0 178.83 0ZM210.03 0L210.03-30 204.28-30 204.28-35 221.28-35 221.28-30 215.53-30 215.53 0 210.03 0ZM231.67 0.5Q227.62 0.5 225.47-1.8 223.32-4.1 223.32-8.3L223.32-8.3 223.32-26.7Q223.32-30.9 225.47-33.2 227.62-35.5 231.67-35.5L231.67-35.5Q235.72-35.5 237.87-33.2 240.02-30.9 240.02-26.7L240.02-26.7 240.02-8.3Q240.02-4.1 237.87-1.8 235.72 0.5 231.67 0.5L231.67 0.5ZM231.67-4.5Q234.52-4.5 234.52-7.95L234.52-7.95 234.52-27.05Q234.52-30.5 231.67-30.5L231.67-30.5Q228.82-30.5 228.82-27.05L228.82-27.05 228.82-7.95Q228.82-4.5 231.67-4.5L231.67-4.5ZM243.72 0L243.72-35 250.62-35 255.97-14.05 256.07-14.05 256.07-35 260.97-35 260.97 0 255.32 0 248.72-25.55 248.62-25.55 248.62 0 243.72 0ZM272.87 0.5Q268.87 0.5 266.77-1.78 264.67-4.05 264.67-8.3L264.67-8.3 264.67-26.7Q264.67-30.95 266.77-33.23 268.87-35.5 272.87-35.5L272.87-35.5Q276.87-35.5 278.97-33.23 281.07-30.95 281.07-26.7L281.07-26.7 281.07-23.7 275.87-23.7 275.87-27.05Q275.87-30.5 273.02-30.5L273.02-30.5Q270.17-30.5 270.17-27.05L270.17-27.05 270.17-7.9Q270.17-4.5 273.02-4.5L273.02-4.5Q275.87-4.5 275.87-7.9L275.87-7.9 275.87-14.75 273.12-14.75 273.12-19.75 281.07-19.75 281.07-8.3Q281.07-4.05 278.97-1.78 276.87 0.5 272.87 0.5L272.87 0.5ZM283.17 0L288.87-35 296.32-35 302.02 0 296.52 0 295.52-6.95 295.52-6.85 289.27-6.85 288.27 0 283.17 0ZM289.92-11.6L294.87-11.6 292.42-28.9 292.32-28.9 289.92-11.6Z" opacity="1" transform="matrix(1,0,0,1,0,0)" fill="black" class="wordmark-text-0" id="SvgjsPath1792" stroke-width="5" stroke="black" stroke-linejoin="round"></path></svg></g></svg></g></svg></g></svg></g><g></g></svg></g></svg></g></svg></g></mask><g mask="url(#b12d6c82-50ca-458e-8b47-ed19fa2e49b9)"><g><path d="M0.989 247.2v-247.2h105.943v35.314h-67.097v65.332h53.324v35.314h-53.324v75.926h67.097v35.314zM233.498 247.2v-247.2h55.443l24.72 176.925h0.707l24.72-176.925h55.443v247.2h-36.727v-187.166h-0.706l-28.251 187.166h-32.49l-28.251-187.166h-0.706v187.166z" fill="#000000" fill-rule="nonzero" stroke="none" stroke-width="1" stroke-linecap="butt" stroke-linejoin="miter" stroke-miterlimit="10" stroke-dasharray="" stroke-dashoffset="0" font-family="none" font-weight="none" font-size="none" text-anchor="none" style="mix-blend-mode: normal" data-fill-palette-color="tertiary"></path></g></g><g transform="matrix(1,0,0,1,2.842170943040401e-14,97.01586885245902)"><svg viewBox="0 0 395.5199999999999 53.16826229508195" height="53.16826229508195" width="395.5199999999999"><g><svg viewBox="0 0 395.5199999999999 53.16826229508195" height="53.16826229508195" width="395.5199999999999"><g><svg viewBox="0 0 395.5199999999999 53.16826229508195" height="53.16826229508195" width="395.5199999999999"><g><svg viewBox="0 0 395.5199999999999 53.16826229508195" height="53.16826229508195" width="395.5199999999999"><g id="textblocktransform"><svg viewBox="0 0 395.5199999999999 53.16826229508195" height="53.16826229508195" width="395.5199999999999" id="textblock"><g><svg viewBox="0 0 395.5199999999999 53.16826229508195" height="53.16826229508195" width="395.5199999999999"><g transform="matrix(1,0,0,1,0,0)"><svg width="395.5199999999999" viewBox="-0.9500000000000002 -38.5 305.96999999999997 42" height="53.16826229508195" data-palette-color="#776e9a"><path d="M2.05 0L2.05-35 17.05-35 17.05-30 7.55-30 7.55-20.75 15.1-20.75 15.1-15.75 7.55-15.75 7.55-5 17.05-5 17.05 0 2.05 0ZM20.2 0L20.2-35 28.05-35 31.55-9.95 31.65-9.95 35.15-35 43-35 43 0 37.8 0 37.8-26.5 37.7-26.5 33.7 0 29.1 0 25.1-26.5 25-26.5 25 0 20.2 0ZM47.09 0L47.09-35 54.95-35 58.45-9.95 58.55-9.95 62.05-35 69.9-35 69.9 0 64.7 0 64.7-26.5 64.59-26.5 60.59 0 56 0 52-26.5 51.9-26.5 51.9 0 47.09 0ZM72.54 0L78.24-35 85.69-35 91.39 0 85.89 0 84.89-6.95 84.89-6.85 78.64-6.85 77.64 0 72.54 0ZM79.29-11.6L84.24-11.6 81.79-28.9 81.69-28.9 79.29-11.6ZM94.04 0L94.04-35 100.94-35 106.29-14.05 106.39-14.05 106.39-35 111.29-35 111.29 0 105.64 0 99.04-25.55 98.94-25.55 98.94 0 94.04 0ZM123.39 0.5Q119.39 0.5 117.29-1.78 115.19-4.05 115.19-8.3L115.19-8.3 115.19-35 120.69-35 120.69-7.9Q120.69-6.1 121.41-5.3 122.14-4.5 123.49-4.5L123.49-4.5Q124.84-4.5 125.56-5.3 126.29-6.1 126.29-7.9L126.29-7.9 126.29-35 131.59-35 131.59-8.3Q131.59-4.05 129.49-1.78 127.39 0.5 123.39 0.5L123.39 0.5ZM135.49 0L135.49-35 150.49-35 150.49-30 140.99-30 140.99-20.75 148.53-20.75 148.53-15.75 140.99-15.75 140.99-5 150.49-5 150.49 0 135.49 0ZM153.63 0L153.63-35 159.13-35 159.13-5 168.18-5 168.18 0 153.63 0ZM178.83 0L178.83-35 186.68-35 190.18-9.95 190.28-9.95 193.78-35 201.63-35 201.63 0 196.43 0 196.43-26.5 196.33-26.5 192.33 0 187.73 0 183.73-26.5 183.63-26.5 183.63 0 178.83 0ZM210.03 0L210.03-30 204.28-30 204.28-35 221.28-35 221.28-30 215.53-30 215.53 0 210.03 0ZM231.67 0.5Q227.62 0.5 225.47-1.8 223.32-4.1 223.32-8.3L223.32-8.3 223.32-26.7Q223.32-30.9 225.47-33.2 227.62-35.5 231.67-35.5L231.67-35.5Q235.72-35.5 237.87-33.2 240.02-30.9 240.02-26.7L240.02-26.7 240.02-8.3Q240.02-4.1 237.87-1.8 235.72 0.5 231.67 0.5L231.67 0.5ZM231.67-4.5Q234.52-4.5 234.52-7.95L234.52-7.95 234.52-27.05Q234.52-30.5 231.67-30.5L231.67-30.5Q228.82-30.5 228.82-27.05L228.82-27.05 228.82-7.95Q228.82-4.5 231.67-4.5L231.67-4.5ZM243.72 0L243.72-35 250.62-35 255.97-14.05 256.07-14.05 256.07-35 260.97-35 260.97 0 255.32 0 248.72-25.55 248.62-25.55 248.62 0 243.72 0ZM272.87 0.5Q268.87 0.5 266.77-1.78 264.67-4.05 264.67-8.3L264.67-8.3 264.67-26.7Q264.67-30.95 266.77-33.23 268.87-35.5 272.87-35.5L272.87-35.5Q276.87-35.5 278.97-33.23 281.07-30.95 281.07-26.7L281.07-26.7 281.07-23.7 275.87-23.7 275.87-27.05Q275.87-30.5 273.02-30.5L273.02-30.5Q270.17-30.5 270.17-27.05L270.17-27.05 270.17-7.9Q270.17-4.5 273.02-4.5L273.02-4.5Q275.87-4.5 275.87-7.9L275.87-7.9 275.87-14.75 273.12-14.75 273.12-19.75 281.07-19.75 281.07-8.3Q281.07-4.05 278.97-1.78 276.87 0.5 272.87 0.5L272.87 0.5ZM283.17 0L288.87-35 296.32-35 302.02 0 296.52 0 295.52-6.95 295.52-6.85 289.27-6.85 288.27 0 283.17 0ZM289.92-11.6L294.87-11.6 292.42-28.9 292.32-28.9 289.92-11.6Z" opacity="1" transform="matrix(1,0,0,1,0,0)" fill="#000000" class="wordmark-text-0" data-fill-palette-color="primary" id="text-0"></path></svg></g></svg></g></svg></g></svg></g><g></g></svg></g></svg></g></svg></g></svg></g><defs></defs></svg><rect width="395.52" height="247.2" fill="none" stroke="none" visibility="hidden"></rect></g></svg></g></svg>